<svg id="Layer_1" data-name="Layer 1" xmlns="http://www.w3.org/2000/svg" width="1220" height="400" viewBox="0 0 1220 400" >
  <defs>
    <linearGradient id="gradient" x1="0%" y1="50%" x2="100%" y2="50%">
      <stop offset="0%" stop-color="#00DDFF">
        <animate attributeName="stop-color" values="#00DDFF; #0065FF; #00DDFF" dur="3s" repeatCount="indefinite"></animate>
      </stop>
      <stop offset="100%" stop-color="#0065FF">
        <animate attributeName="stop-color" values="#0065FF; #00DDFF; #0065FF" dur="3s" repeatCount="indefinite"></animate>
      </stop>
    </linearGradient>
    <pattern id="pattern" x="0" y="0" width="300%" height="100%" patternUnits="userSpaceOnUse">
      <rect x="0" y="0" width="150%" height="100%" fill="url(#gradient)" />
      <rect x="-150%" y="0" width="150%" height="100%" fill="url(#gradient)" />
    </pattern>
  </defs>
  <title>Joshua Taguicana</title>
  <g id="joshuataguicana" fill="url(#pattern)">
    <rect width="1220" height="400" fill="#333333"/>
    <g>
      <path d="M96.3396 244.36C86.933 244.36 79.3396 241.583 73.5596 236.03C67.7796 230.363 64.8896 222.883 64.8896 213.59V201.01C64.8896 200.443 65.0596 199.99 65.3996 199.65C65.853 199.197 66.363 198.97 66.9296 198.97H82.5696C83.1363 198.97 83.5896 199.197 83.9296 199.65C84.383 199.99 84.6096 200.443 84.6096 201.01V213.93C84.6096 217.897 85.6863 221.127 87.8396 223.62C89.993 226.113 92.8263 227.36 96.3396 227.36C99.853 227.36 102.686 226.113 104.84 223.62C107.106 221.127 108.24 217.897 108.24 213.93V126.04C108.24 125.473 108.41 125.02 108.75 124.68C109.203 124.227 109.713 124 110.28 124H125.92C126.486 124 126.94 124.227 127.28 124.68C127.733 125.02 127.96 125.473 127.96 126.04V213.59C127.96 222.883 125.013 230.363 119.12 236.03C113.34 241.583 105.746 244.36 96.3396 244.36Z" />
      <path d="M174.091 244.36C164.684 244.36 157.261 241.867 151.821 236.88C146.494 231.893 143.831 225.15 143.831 216.65V182.48C143.831 174.093 146.551 167.407 151.991 162.42C157.431 157.32 164.797 154.77 174.091 154.77C183.497 154.77 190.921 157.32 196.361 162.42C201.801 167.407 204.521 174.093 204.521 182.48V216.65C204.521 225.15 201.801 231.893 196.361 236.88C191.034 241.867 183.611 244.36 174.091 244.36ZM174.091 227.19C177.264 227.19 179.814 226.113 181.741 223.96C183.781 221.693 184.801 218.747 184.801 215.12V183.84C184.801 180.327 183.781 177.437 181.741 175.17C179.814 172.903 177.264 171.77 174.091 171.77C170.917 171.77 168.367 172.903 166.441 175.17C164.514 177.323 163.551 180.213 163.551 183.84V215.12C163.551 218.747 164.514 221.693 166.441 223.96C168.367 226.113 170.917 227.19 174.091 227.19Z" />
      <path d="M245.26 244.02C236.306 244.02 229.166 241.867 223.84 237.56C218.513 233.253 215.85 227.417 215.85 220.05V218.86C215.85 218.293 216.02 217.84 216.36 217.5C216.813 217.047 217.323 216.82 217.89 216.82H232.51C233.076 216.82 233.53 217.047 233.87 217.5C234.323 217.84 234.55 218.293 234.55 218.86V219.71C234.55 222.43 235.57 224.697 237.61 226.51C239.763 228.323 242.37 229.23 245.43 229.23C248.376 229.23 250.7 228.38 252.4 226.68C254.1 224.98 254.95 222.827 254.95 220.22C254.95 217.953 254.213 216.083 252.74 214.61C251.266 213.023 249.68 211.833 247.98 211.04C246.28 210.247 243.22 208.943 238.8 207.13C232.34 204.637 227.013 201.463 222.82 197.61C218.74 193.757 216.7 188.033 216.7 180.44C216.7 172.507 219.193 166.33 224.18 161.91C229.28 157.377 236.136 155.11 244.75 155.11C253.59 155.11 260.56 157.49 265.66 162.25C270.873 166.897 273.48 173.187 273.48 181.12C273.48 181.687 273.253 182.197 272.8 182.65C272.46 182.99 272.006 183.16 271.44 183.16H257.16C256.593 183.16 256.083 182.99 255.63 182.65C255.29 182.197 255.12 181.687 255.12 181.12V180.1C255.12 177.38 254.156 175.113 252.23 173.3C250.416 171.487 248.093 170.58 245.26 170.58C242.313 170.58 239.933 171.543 238.12 173.47C236.42 175.283 235.57 177.493 235.57 180.1C235.57 182.253 236.25 184.067 237.61 185.54C238.97 187.013 240.5 188.203 242.2 189.11C243.9 189.903 246.733 191.15 250.7 192.85C255.46 194.777 259.426 196.703 262.6 198.63C265.886 200.443 268.72 203.107 271.1 206.62C273.593 210.02 274.84 214.27 274.84 219.37C274.84 226.963 272.176 232.97 266.85 237.39C261.523 241.81 254.326 244.02 245.26 244.02Z" />
      <path d="M323.534 154.77C330.901 154.77 336.454 157.263 340.194 162.25C344.047 167.123 345.974 174.093 345.974 183.16V240.96C345.974 241.527 345.747 242.037 345.294 242.49C344.954 242.83 344.501 243 343.934 243H328.294C327.727 243 327.217 242.83 326.764 242.49C326.424 242.037 326.254 241.527 326.254 240.96V184.69C326.254 180.61 325.404 177.437 323.704 175.17C322.004 172.903 319.567 171.77 316.394 171.77C313.107 171.77 310.557 172.96 308.744 175.34C306.931 177.72 306.024 181.007 306.024 185.2V240.96C306.024 241.527 305.797 242.037 305.344 242.49C305.004 242.83 304.551 243 303.984 243H288.344C287.777 243 287.267 242.83 286.814 242.49C286.474 242.037 286.304 241.527 286.304 240.96V126.04C286.304 125.473 286.474 125.02 286.814 124.68C287.267 124.227 287.777 124 288.344 124H303.984C304.551 124 305.004 124.227 305.344 124.68C305.797 125.02 306.024 125.473 306.024 126.04V161.57C306.024 161.91 306.137 162.137 306.364 162.25C306.704 162.25 307.044 162.023 307.384 161.57C311.237 157.037 316.621 154.77 323.534 154.77Z" />
      <path d="M400.281 158.17C400.281 157.603 400.451 157.15 400.791 156.81C401.244 156.357 401.754 156.13 402.321 156.13H417.961C418.528 156.13 418.981 156.357 419.321 156.81C419.774 157.15 420.001 157.603 420.001 158.17V240.96C420.001 241.527 419.774 242.037 419.321 242.49C418.981 242.83 418.528 243 417.961 243H402.321C401.754 243 401.244 242.83 400.791 242.49C400.451 242.037 400.281 241.527 400.281 240.96V237.22C400.281 236.88 400.168 236.653 399.941 236.54C399.714 236.427 399.488 236.54 399.261 236.88C395.974 241.753 390.704 244.19 383.451 244.19C376.538 244.19 370.928 242.15 366.621 238.07C362.428 233.877 360.331 227.473 360.331 218.86V158.17C360.331 157.603 360.501 157.15 360.841 156.81C361.294 156.357 361.804 156.13 362.371 156.13H378.011C378.578 156.13 379.031 156.357 379.371 156.81C379.824 157.15 380.051 157.603 380.051 158.17V214.61C380.051 223.11 383.338 227.36 389.911 227.36C393.198 227.36 395.748 226.17 397.561 223.79C399.374 221.297 400.281 217.953 400.281 213.76V158.17Z" />
      <path d="M465.132 154.77C474.085 154.77 481.339 157.377 486.892 162.59C492.445 167.803 495.222 174.66 495.222 183.16V240.96C495.222 241.527 494.995 242.037 494.542 242.49C494.202 242.83 493.749 243 493.182 243H477.542C476.975 243 476.465 242.83 476.012 242.49C475.672 242.037 475.502 241.527 475.502 240.96V237.73C475.502 237.39 475.389 237.163 475.162 237.05C474.935 236.937 474.709 237.05 474.482 237.39C470.515 242.037 464.735 244.36 457.142 244.36C450.682 244.36 444.959 242.547 439.972 238.92C435.099 235.18 432.662 228.437 432.662 218.69C432.662 208.49 435.609 201.237 441.502 196.93C447.509 192.623 455.612 190.47 465.812 190.47H474.652C475.219 190.47 475.502 190.187 475.502 189.62V185.2C475.502 181.12 474.482 177.89 472.442 175.51C470.402 173.017 467.852 171.77 464.792 171.77C462.412 171.77 460.429 172.563 458.842 174.15C457.255 175.623 456.292 177.663 455.952 180.27C455.839 181.63 455.102 182.31 453.742 182.31H437.252C435.892 182.31 435.269 181.63 435.382 180.27C435.949 172.563 438.952 166.387 444.392 161.74C449.945 157.093 456.859 154.77 465.132 154.77ZM462.582 228.04C465.982 228.04 468.985 226.963 471.592 224.81C474.199 222.657 475.502 219.653 475.502 215.8V206.11C475.502 205.543 475.219 205.26 474.652 205.26H465.812C461.959 205.26 458.842 206.337 456.462 208.49C454.082 210.53 452.892 213.533 452.892 217.5C452.892 221.013 453.799 223.677 455.612 225.49C457.425 227.19 459.749 228.04 462.582 228.04Z" />
      <path d="M605.686 124C606.253 124 606.706 124.227 607.046 124.68C607.5 125.02 607.726 125.473 607.726 126.04V138.96C607.726 139.527 607.5 140.037 607.046 140.49C606.706 140.83 606.253 141 605.686 141H584.096C583.53 141 583.246 141.283 583.246 141.85V240.96C583.246 241.527 583.02 242.037 582.566 242.49C582.226 242.83 581.773 243 581.206 243H565.566C565 243 564.49 242.83 564.036 242.49C563.696 242.037 563.526 241.527 563.526 240.96V141.85C563.526 141.283 563.243 141 562.676 141H542.276C541.71 141 541.2 140.83 540.746 140.49C540.406 140.037 540.236 139.527 540.236 138.96V126.04C540.236 125.473 540.406 125.02 540.746 124.68C541.2 124.227 541.71 124 542.276 124H605.686Z" />
      <path d="M642.935 154.77C651.888 154.77 659.141 157.377 664.695 162.59C670.248 167.803 673.025 174.66 673.025 183.16V240.96C673.025 241.527 672.798 242.037 672.345 242.49C672.005 242.83 671.551 243 670.985 243H655.345C654.778 243 654.268 242.83 653.815 242.49C653.475 242.037 653.305 241.527 653.305 240.96V237.73C653.305 237.39 653.191 237.163 652.965 237.05C652.738 236.937 652.511 237.05 652.285 237.39C648.318 242.037 642.538 244.36 634.945 244.36C628.485 244.36 622.761 242.547 617.775 238.92C612.901 235.18 610.465 228.437 610.465 218.69C610.465 208.49 613.411 201.237 619.305 196.93C625.311 192.623 633.415 190.47 643.615 190.47H652.455C653.022 190.47 653.305 190.187 653.305 189.62V185.2C653.305 181.12 652.285 177.89 650.245 175.51C648.205 173.017 645.655 171.77 642.595 171.77C640.215 171.77 638.232 172.563 636.645 174.15C635.058 175.623 634.095 177.663 633.755 180.27C633.641 181.63 632.905 182.31 631.545 182.31H615.055C613.695 182.31 613.071 181.63 613.185 180.27C613.751 172.563 616.755 166.387 622.195 161.74C627.748 157.093 634.661 154.77 642.935 154.77ZM640.385 228.04C643.785 228.04 646.788 226.963 649.395 224.81C652.002 222.657 653.305 219.653 653.305 215.8V206.11C653.305 205.543 653.022 205.26 652.455 205.26H643.615C639.761 205.26 636.645 206.337 634.265 208.49C631.885 210.53 630.695 213.533 630.695 217.5C630.695 221.013 631.601 223.677 633.415 225.49C635.228 227.19 637.551 228.04 640.385 228.04Z" />
      <path d="M725.996 158.17C725.996 157.603 726.166 157.15 726.506 156.81C726.959 156.357 727.469 156.13 728.036 156.13H743.676C744.242 156.13 744.696 156.357 745.036 156.81C745.489 157.15 745.716 157.603 745.716 158.17V239.77C745.716 252.01 742.939 261.417 737.386 267.99C731.832 274.677 721.916 278.02 707.636 278.02C705.142 278.02 703.272 277.963 702.026 277.85C700.666 277.737 699.986 277 699.986 275.64V262.55C699.986 261.077 700.722 260.453 702.196 260.68C708.656 260.793 713.586 260 716.986 258.3C720.499 256.6 722.879 254.107 724.126 250.82C725.372 247.533 725.996 243.227 725.996 237.9V236.03C725.996 235.69 725.882 235.52 725.656 235.52C725.429 235.407 725.202 235.52 724.976 235.86C721.236 240.733 715.909 243.17 708.996 243.17C701.402 243.17 695.622 240.733 691.656 235.86C687.689 230.873 685.706 224.13 685.706 215.63V182.31C685.706 173.583 687.689 166.84 691.656 162.08C695.736 157.207 701.516 154.77 708.996 154.77C715.909 154.77 721.236 157.207 724.976 162.08C725.202 162.42 725.429 162.59 725.656 162.59C725.882 162.477 725.996 162.25 725.996 161.91V158.17ZM715.796 226.17C718.856 226.17 721.292 225.093 723.106 222.94C725.032 220.673 725.996 217.783 725.996 214.27V183.84C725.996 180.213 725.032 177.323 723.106 175.17C721.292 172.903 718.856 171.77 715.796 171.77C712.736 171.77 710.242 172.903 708.316 175.17C706.389 177.437 705.426 180.327 705.426 183.84V214.27C705.426 217.783 706.389 220.673 708.316 222.94C710.242 225.093 712.736 226.17 715.796 226.17Z" />
      <path d="M799.549 158.17C799.549 157.603 799.719 157.15 800.059 156.81C800.512 156.357 801.022 156.13 801.589 156.13H817.229C817.795 156.13 818.249 156.357 818.589 156.81C819.042 157.15 819.269 157.603 819.269 158.17V240.96C819.269 241.527 819.042 242.037 818.589 242.49C818.249 242.83 817.795 243 817.229 243H801.589C801.022 243 800.512 242.83 800.059 242.49C799.719 242.037 799.549 241.527 799.549 240.96V237.22C799.549 236.88 799.435 236.653 799.209 236.54C798.982 236.427 798.755 236.54 798.529 236.88C795.242 241.753 789.972 244.19 782.719 244.19C775.805 244.19 770.195 242.15 765.889 238.07C761.695 233.877 759.599 227.473 759.599 218.86V158.17C759.599 157.603 759.769 157.15 760.109 156.81C760.562 156.357 761.072 156.13 761.639 156.13H777.279C777.845 156.13 778.299 156.357 778.639 156.81C779.092 157.15 779.319 157.603 779.319 158.17V214.61C779.319 223.11 782.605 227.36 789.179 227.36C792.465 227.36 795.015 226.17 796.829 223.79C798.642 221.297 799.549 217.953 799.549 213.76V158.17Z" />
      <path d="M845.19 144.23C841.676 144.23 838.786 143.097 836.52 140.83C834.253 138.563 833.12 135.673 833.12 132.16C833.12 128.647 834.253 125.757 836.52 123.49C838.786 121.223 841.676 120.09 845.19 120.09C848.703 120.09 851.536 121.223 853.69 123.49C855.956 125.757 857.09 128.647 857.09 132.16C857.09 135.673 855.956 138.563 853.69 140.83C851.423 143.097 848.59 144.23 845.19 144.23ZM837.54 243C836.973 243 836.463 242.83 836.01 242.49C835.67 242.037 835.5 241.527 835.5 240.96V158.17C835.5 157.603 835.67 157.15 836.01 156.81C836.463 156.357 836.973 156.13 837.54 156.13H853.18C853.746 156.13 854.2 156.357 854.54 156.81C854.993 157.15 855.22 157.603 855.22 158.17V240.96C855.22 241.527 854.993 242.037 854.54 242.49C854.2 242.83 853.746 243 853.18 243H837.54Z" />
      <path d="M900.073 244.36C890.78 244.36 883.413 241.867 877.973 236.88C872.646 231.893 869.983 225.15 869.983 216.65V182.31C869.983 174.037 872.646 167.407 877.973 162.42C883.413 157.32 890.78 154.77 900.073 154.77C909.366 154.77 916.733 157.263 922.173 162.25C927.613 167.123 930.333 173.357 930.333 180.95V183.33C930.333 183.897 930.106 184.407 929.653 184.86C929.313 185.2 928.86 185.37 928.293 185.37L912.653 186.05C911.293 186.05 910.613 185.37 910.613 184.01V182.31C910.613 179.477 909.593 177.04 907.553 175C905.626 172.847 903.133 171.77 900.073 171.77C897.013 171.77 894.52 172.903 892.593 175.17C890.666 177.437 889.703 180.327 889.703 183.84V215.29C889.703 218.803 890.666 221.693 892.593 223.96C894.52 226.227 897.013 227.36 900.073 227.36C903.133 227.36 905.626 226.34 907.553 224.3C909.593 222.147 910.613 219.597 910.613 216.65V214.95C910.613 214.383 910.783 213.93 911.123 213.59C911.576 213.137 912.086 212.91 912.653 212.91L928.293 213.08C928.86 213.08 929.313 213.307 929.653 213.76C930.106 214.1 930.333 214.553 930.333 215.12V218.18C930.333 226 927.613 232.347 922.173 237.22C916.733 241.98 909.366 244.36 900.073 244.36Z" />
      <path d="M972.642 154.77C981.595 154.77 988.849 157.377 994.402 162.59C999.955 167.803 1002.73 174.66 1002.73 183.16V240.96C1002.73 241.527 1002.51 242.037 1002.05 242.49C1001.71 242.83 1001.26 243 1000.69 243H985.052C984.485 243 983.975 242.83 983.522 242.49C983.182 242.037 983.012 241.527 983.012 240.96V237.73C983.012 237.39 982.898 237.163 982.672 237.05C982.445 236.937 982.218 237.05 981.992 237.39C978.025 242.037 972.245 244.36 964.652 244.36C958.192 244.36 952.468 242.547 947.482 238.92C942.608 235.18 940.172 228.437 940.172 218.69C940.172 208.49 943.119 201.237 949.012 196.93C955.019 192.623 963.122 190.47 973.322 190.47H982.162C982.729 190.47 983.012 190.187 983.012 189.62V185.2C983.012 181.12 981.992 177.89 979.952 175.51C977.912 173.017 975.362 171.77 972.302 171.77C969.922 171.77 967.939 172.563 966.352 174.15C964.765 175.623 963.802 177.663 963.462 180.27C963.349 181.63 962.612 182.31 961.252 182.31H944.762C943.402 182.31 942.779 181.63 942.892 180.27C943.459 172.563 946.462 166.387 951.902 161.74C957.455 157.093 964.369 154.77 972.642 154.77ZM970.092 228.04C973.492 228.04 976.495 226.963 979.102 224.81C981.709 222.657 983.012 219.653 983.012 215.8V206.11C983.012 205.543 982.729 205.26 982.162 205.26H973.322C969.469 205.26 966.352 206.337 963.972 208.49C961.592 210.53 960.402 213.533 960.402 217.5C960.402 221.013 961.308 223.677 963.122 225.49C964.935 227.19 967.259 228.04 970.092 228.04Z" />
      <path d="M1054 154.77C1061.37 154.77 1066.92 157.263 1070.66 162.25C1074.52 167.123 1076.44 174.093 1076.44 183.16V240.96C1076.44 241.527 1076.22 242.037 1075.76 242.49C1075.42 242.83 1074.97 243 1074.4 243H1058.76C1058.2 243 1057.69 242.83 1057.23 242.49C1056.89 242.037 1056.72 241.527 1056.72 240.96V184.69C1056.72 180.61 1055.87 177.437 1054.17 175.17C1052.47 172.903 1050.04 171.77 1046.86 171.77C1043.58 171.77 1041.03 172.96 1039.21 175.34C1037.4 177.72 1036.49 181.007 1036.49 185.2V240.96C1036.49 241.527 1036.27 242.037 1035.81 242.49C1035.47 242.83 1035.02 243 1034.45 243H1018.81C1018.25 243 1017.74 242.83 1017.28 242.49C1016.94 242.037 1016.77 241.527 1016.77 240.96V158.17C1016.77 157.603 1016.94 157.15 1017.28 156.81C1017.74 156.357 1018.25 156.13 1018.81 156.13H1034.45C1035.02 156.13 1035.47 156.357 1035.81 156.81C1036.27 157.15 1036.49 157.603 1036.49 158.17V161.57C1036.49 161.91 1036.61 162.137 1036.83 162.25C1037.17 162.25 1037.51 162.023 1037.85 161.57C1041.71 157.037 1047.09 154.77 1054 154.77Z" />
      <path d="M1121.06 154.77C1130.01 154.77 1137.27 157.377 1142.82 162.59C1148.37 167.803 1151.15 174.66 1151.15 183.16V240.96C1151.15 241.527 1150.92 242.037 1150.47 242.49C1150.13 242.83 1149.68 243 1149.11 243H1133.47C1132.9 243 1132.39 242.83 1131.94 242.49C1131.6 242.037 1131.43 241.527 1131.43 240.96V237.73C1131.43 237.39 1131.32 237.163 1131.09 237.05C1130.86 236.937 1130.64 237.05 1130.41 237.39C1126.44 242.037 1120.66 244.36 1113.07 244.36C1106.61 244.36 1100.89 242.547 1095.9 238.92C1091.03 235.18 1088.59 228.437 1088.59 218.69C1088.59 208.49 1091.54 201.237 1097.43 196.93C1103.44 192.623 1111.54 190.47 1121.74 190.47H1130.58C1131.15 190.47 1131.43 190.187 1131.43 189.62V185.2C1131.43 181.12 1130.41 177.89 1128.37 175.51C1126.33 173.017 1123.78 171.77 1120.72 171.77C1118.34 171.77 1116.36 172.563 1114.77 174.15C1113.18 175.623 1112.22 177.663 1111.88 180.27C1111.77 181.63 1111.03 182.31 1109.67 182.31H1093.18C1091.82 182.31 1091.2 181.63 1091.31 180.27C1091.88 172.563 1094.88 166.387 1100.32 161.74C1105.87 157.093 1112.79 154.77 1121.06 154.77ZM1118.51 228.04C1121.91 228.04 1124.91 226.963 1127.52 224.81C1130.13 222.657 1131.43 219.653 1131.43 215.8V206.11C1131.43 205.543 1131.15 205.26 1130.58 205.26H1121.74C1117.89 205.26 1114.77 206.337 1112.39 208.49C1110.01 210.53 1108.82 213.533 1108.82 217.5C1108.82 221.013 1109.73 223.677 1111.54 225.49C1113.35 227.19 1115.68 228.04 1118.51 228.04Z" />
    </g>
  </g>
</svg>
